<svg version="1.1" xmlns="http://www.w3.org/2000/svg" xmlns:xlink="http://www.w3.org/1999/xlink" width="48px" height="48px" viewBox="0,0,256,256"><g fill="none" fill-rule="nonzero" stroke="none" stroke-width="none" stroke-linecap="none" stroke-linejoin="none" stroke-miterlimit="10" stroke-dasharray="" stroke-dashoffset="0" font-family="none" font-weight="none" font-size="none" text-anchor="none" style="mix-blend-mode: normal"><g transform="scale(5.33333,5.33333)"><circle cx="28" cy="28" r="18" fill="#fffc00" stroke="none" stroke-width="1" stroke-linecap="butt" stroke-linejoin="miter"></circle><path d="M42.2,27.2c-1.5,8.7 -9.1,15.3 -18.2,15.3c-10.2,0 -18.5,-8.3 -18.5,-18.5c0,-10.2 8.3,-18.5 18.5,-18.5c7,0 13.1,3.9 16.2,9.6" fill="none" stroke="#00d1ff" stroke-width="3" stroke-linecap="round" stroke-linejoin="round"></path><path d="M16.8,14.2c1.5,-5.2 4.2,-8.7 7.2,-8.7c4.7,0 8.5,8.3 8.5,18.5c0,10.2 -3.8,18.5 -8.5,18.5c-4.7,0 -8.5,-8.3 -8.5,-18.5c0,-0.5 0,-1 0,-1.6" fill="none" stroke="#00d1ff" stroke-width="3" stroke-linecap="round" stroke-linejoin="round"></path><path d="M13.2,17.5h22.2" fill="none" stroke="#00d1ff" stroke-width="3" stroke-linecap="round" stroke-linejoin="round"></path><path d="M11.1,30.5h25.4" fill="none" stroke="#00d1ff" stroke-width="3" stroke-linecap="round" stroke-linejoin="round"></path></g></g></svg>